<svg class="svg-icon" style="width: 1em;height: 1em;vertical-align: middle;fill: currentColor;overflow: hidden;" viewBox="0 0 1024 1024" version="1.1" xmlns="http://www.w3.org/2000/svg"><path d="M512 624a112 112 0 1 1 0-224 112 112 0 0 1 0 224z" fill="#4DB6AC" /><path d="M512 632c-66.176 0-120-53.824-120-120s53.824-120 120-120 120 53.824 120 120-53.824 120-120 120z m0-224c-57.344 0-104 46.656-104 104s46.656 104 104 104 104-46.656 104-104-46.656-104-104-104z" fill="#263238" /><path d="M524 560H480a8 8 0 0 1 0-16h44a12 12 0 0 0 0-24h-24c-15.44 0-28-12.56-28-28S484.56 464 500 464h36a8 8 0 0 1 0 16h-36a12 12 0 0 0 0 24h24c15.44 0 28 12.56 28 28S539.44 560 524 560z" fill="#263238" /><path d="M512 480a8 8 0 0 1-8-8V448a8 8 0 0 1 16 0v24a8 8 0 0 1-8 8zM512 584a8 8 0 0 1-8-8v-24a8 8 0 0 1 16 0V576a8 8 0 0 1-8 8z" fill="#263238" /><path d="M520 272c108.736 0 201.12 70.432 234.512 168h-52.784l88 88 88-88h-40C801.872 297.76 673.216 192 520 192s-281.872 105.76-317.728 248h83.216C318.88 342.432 411.264 272 520 272z" fill="#FFD740" /><path d="M789.712 536a8.032 8.032 0 0 1-5.664-2.336l-88-88a7.984 7.984 0 0 1 5.664-13.664h41.328c-36.112-91.376-124.352-152-223.04-152-102.464 0-193.664 65.328-226.944 162.592a8 8 0 0 1-7.568 5.408h-83.216a8 8 0 0 1-7.76-9.952C232.224 288.464 366.064 184 520 184c151.84 0 284.144 101.664 323.888 248h33.824a8 8 0 0 1 5.664 13.664l-88 88a8.032 8.032 0 0 1-5.664 2.336zM721.024 448l68.688 68.688L858.4 448h-20.688a7.984 7.984 0 0 1-7.744-6.048C794.048 299.488 666.592 200 520 200c-143.152 0-268.064 94.88-307.28 232h67.12c36.976-100.72 132.768-168 240.16-168 109.296 0 206.592 69.68 242.08 173.408a8 8 0 0 1-7.568 10.592h-33.488z" fill="#263238" /><path d="M520 768c-108.736 0-201.12-70.432-234.512-168h52.784l-88-88-88 88h40C238.128 742.24 366.784 848 520 848s281.872-105.76 317.728-248h-83.216C721.12 697.568 628.736 768 520 768z" fill="#FFD740" /><path d="M520 856c-151.856 0-284.144-101.664-323.888-248h-33.824a8 8 0 0 1-5.664-13.664l88-88a8 8 0 0 1 11.312 0l88 88a7.984 7.984 0 0 1-5.648 13.664H296.96c36.096 91.376 124.336 152 223.04 152 102.448 0 193.664-65.344 226.96-162.592a7.952 7.952 0 0 1 7.552-5.408h83.2a8 8 0 0 1 7.76 9.952C807.76 751.536 673.92 856 520 856zM181.6 592h20.688a8 8 0 0 1 7.76 6.048C245.952 740.512 373.408 840 520 840c143.152 0 268.064-94.88 307.28-232h-67.104c-36.992 100.736-132.784 168-240.176 168-109.312 0-206.592-69.68-242.08-173.408a7.968 7.968 0 0 1 7.568-10.592h33.472l-68.688-68.688L181.6 592zM64 520a8 8 0 0 1-8-8C56 260.56 260.56 56 512 56a8 8 0 0 1 0 16C269.376 72 72 269.376 72 512a8 8 0 0 1-8 8zM560 72h-16a8 8 0 0 1 0-16h16a8 8 0 0 1 0 16z" fill="#263238" /><path d="M512 968a8 8 0 0 1 0-16c242.608 0 440-197.376 440-440a8 8 0 0 1 16 0c0 251.44-204.56 456-456 456zM480 968h-16a8 8 0 0 1 0-16h16a8 8 0 0 1 0 16zM848 104h-64a8 8 0 0 1 0-16h64a8 8 0 0 1 0 16z" fill="#263238" /><path d="M816 136a8 8 0 0 1-8-8V64a8 8 0 0 1 16 0v64a8 8 0 0 1-8 8z" fill="#263238" /><path d="M960 208h-64a8 8 0 0 1 0-16h64a8 8 0 0 1 0 16z" fill="#263238" /><path d="M928 240a8 8 0 0 1-8-8v-64a8 8 0 0 1 16 0v64a8 8 0 0 1-8 8z" fill="#263238" /></svg>