<svg class="svg-icon" style="width: 1em;height: 1em;vertical-align: middle;fill: currentColor;overflow: hidden;" viewBox="0 0 1024 1024" version="1.1" xmlns="http://www.w3.org/2000/svg"><path d="M514 560m-128 0a128 128 0 1 0 256 0 128 128 0 1 0-256 0Z" fill="#FFD740" /><path d="M514 696c-74.992 0-136-61.008-136-136s61.008-136 136-136 136 61.008 136 136-61.008 136-136 136z m0-256c-66.176 0-120 53.824-120 120s53.824 120 120 120 120-53.824 120-120-53.824-120-120-120z" fill="#263238" /><path d="M514 528a8 8 0 0 1-8-8V496a8 8 0 0 1 16 0v24a8 8 0 0 1-8 8zM514 632a8 8 0 0 1-8-8v-24a8 8 0 0 1 16 0V624a8 8 0 0 1-8 8z" fill="#263238" /><path d="M526 608h-44.016a8 8 0 0 1 0-16h44.016a12 12 0 0 0 0-24h-24.016c-15.44 0-28-12.56-28-28s12.56-28 28-28h36a8 8 0 0 1 0 16h-36a12 12 0 0 0 0 24h24.016a28.016 28.016 0 0 1 0 56z" fill="#263238" /><path d="M490 734.192a175.888 175.888 0 0 1-150.176-150.192H178V816a80 80 0 0 0 80 80h232V734.192z" fill="#40C4FF" /><path d="M489.984 904H258a88.096 88.096 0 0 1-88-88V584a8 8 0 0 1 8-8h161.808a8 8 0 0 1 7.92 6.912c10.176 74.24 69.104 133.184 143.328 143.344a8.016 8.016 0 0 1 6.928 7.936V896a8 8 0 0 1-8 8zM186 592v224c0 39.696 32.304 72 72 72h223.984v-146.976A184.304 184.304 0 0 1 332.976 592h-146.976zM769.984 904h-232a8 8 0 0 1-8-8V734.176c0-4 2.96-7.376 6.928-7.936 74.24-10.144 133.184-69.088 143.36-143.328a8 8 0 0 1 7.92-6.912h161.792a8 8 0 0 1 8 8V816c0 48.528-39.488 88-88 88z m-224-16h224c39.696 0 72-32.304 72-72V592h-146.96a184.272 184.272 0 0 1-149.04 149.024V888zM339.808 544H178a8 8 0 0 1-8-8V304c0-48.528 39.488-88 88-88h231.984a8 8 0 0 1 8 8v161.824c0 4-2.96 7.376-6.928 7.936-74.24 10.144-133.168 69.088-143.328 143.328a8 8 0 0 1-7.92 6.912z m-153.808-16h146.976a184.208 184.208 0 0 1 149.008-149.008V232H258a72.08 72.08 0 0 0-72 72v224z" fill="#263238" /><path d="M769.984 224h-232v161.808c77.92 10.672 139.52 72.24 150.176 150.192h161.824V304a80 80 0 0 0-80-80z" fill="#FF5252" /><path d="M849.984 544H688.176a8 8 0 0 1-7.92-6.912 168.128 168.128 0 0 0-143.344-143.344 8.016 8.016 0 0 1-6.928-7.936V224a8 8 0 0 1 8-8h232c48.512 0 88 39.472 88 88v232a8 8 0 0 1-8 8z m-154.976-16h146.976V304c0-39.696-32.304-72-72-72h-224v146.976A184.24 184.24 0 0 1 695.008 528zM925.984 968h-32a8 8 0 0 1 0-16h32a8 8 0 0 1 0 16zM861.984 968h-256a8 8 0 0 1 0-16h256a8 8 0 0 1 0 16zM125.984 168h-32a8 8 0 0 1 0-16h32a8 8 0 0 1 0 16zM413.984 168h-256a8 8 0 0 1 0-16h256a8 8 0 0 1 0 16zM842 104h-64a8 8 0 0 1 0-16h64a8 8 0 0 1 0 16z" fill="#263238" /><path d="M810 136a8 8 0 0 1-8-8V64a8 8 0 0 1 16 0v64a8 8 0 0 1-8 8z" fill="#263238" /><path d="M930 184h-64a8 8 0 0 1 0-16h64a8 8 0 0 1 0 16z" fill="#263238" /><path d="M898 216a8 8 0 0 1-8-8V144a8 8 0 0 1 16 0v64a8 8 0 0 1-8 8z" fill="#263238" /></svg>